<svg width="55" height="21" viewBox="0 0 55 21" fill="none" xmlns="http://www.w3.org/2000/svg">
<path d="M36.3689 4.21989V13.5721C36.3689 13.6394 36.3422 13.7039 36.2946 13.7514C36.2471 13.799 36.1826 13.8257 36.1153 13.8257H34.2053C34.172 13.8257 34.139 13.8191 34.1082 13.8064C34.0775 13.7936 34.0495 13.7749 34.026 13.7514C34.0024 13.7279 33.9837 13.6999 33.971 13.6691C33.9583 13.6384 33.9517 13.6054 33.9517 13.5721V4.21989C33.9517 4.18659 33.9583 4.15362 33.971 4.12286C33.9837 4.09209 34.0024 4.06414 34.026 4.0406C34.0495 4.01705 34.0775 3.99837 34.1082 3.98563C34.139 3.97289 34.172 3.96633 34.2053 3.96633H36.1153C36.1826 3.96633 36.2471 3.99304 36.2946 4.0406C36.3422 4.08815 36.3689 4.15264 36.3689 4.21989ZM51.2551 3.96633H49.1174C49.0623 3.96669 49.0089 3.98495 48.9652 4.01834C48.9214 4.05172 48.8898 4.09843 48.8749 4.15141L47.1832 9.67797L45.3324 4.14586C45.3154 4.0956 45.283 4.05195 45.2398 4.02107C45.1967 3.99019 45.1449 3.97363 45.0918 3.97373H43.6C43.547 3.97363 43.4952 3.99019 43.452 4.02107C43.4089 4.05195 43.3765 4.0956 43.3594 4.14586L41.5086 9.67797L39.7948 4.14586C39.7799 4.09288 39.7482 4.04617 39.7045 4.01278C39.6607 3.9794 39.6073 3.96114 39.5523 3.96078H37.4201C37.38 3.96099 37.3405 3.97065 37.3048 3.98898C37.2691 4.00731 37.2383 4.03379 37.2147 4.06627C37.191 4.09861 37.1754 4.13618 37.1693 4.17581C37.1632 4.21543 37.1667 4.25594 37.1795 4.29393L40.3259 13.6498C40.343 13.7001 40.3754 13.7438 40.4185 13.7746C40.4617 13.8055 40.5135 13.8221 40.5665 13.822H42.2638C42.3168 13.8221 42.3686 13.8055 42.4118 13.7746C42.4549 13.7438 42.4873 13.7001 42.5044 13.6498L44.3459 8.18436L46.1875 13.6498C46.2045 13.7001 46.2369 13.7438 46.2801 13.7746C46.3233 13.8055 46.375 13.8221 46.4281 13.822H48.1235C48.1765 13.8221 48.2283 13.8055 48.2715 13.7746C48.3146 13.7438 48.347 13.7001 48.3641 13.6498L51.5105 4.29393C51.5193 4.25544 51.5188 4.21541 51.5092 4.17713C51.4995 4.13884 51.4809 4.10339 51.4549 4.07368C51.4321 4.04159 51.4022 4.01521 51.3676 3.99659C51.3329 3.97797 51.2944 3.96761 51.2551 3.96633ZM54.4699 3.96633H52.5654C52.4982 3.96633 52.4337 3.99304 52.3861 4.0406C52.3386 4.08815 52.3119 4.15264 52.3119 4.21989V13.5721C52.3119 13.6394 52.3386 13.7039 52.3861 13.7514C52.4337 13.799 52.4982 13.8257 52.5654 13.8257H54.4755C54.5427 13.8257 54.6072 13.799 54.6548 13.7514C54.7023 13.7039 54.729 13.6394 54.729 13.5721V4.21989C54.7291 4.18612 54.7223 4.15269 54.7092 4.12156C54.6961 4.09043 54.677 4.06222 54.6528 4.0386C54.6287 4.01498 54.6001 3.99642 54.5687 3.98401C54.5373 3.9716 54.5037 3.96559 54.4699 3.96633ZM32.8449 13.5129C32.8747 13.5392 32.8953 13.5744 32.9035 13.6134C32.9117 13.6523 32.9072 13.6928 32.8906 13.7289C32.874 13.7651 32.8461 13.7949 32.8112 13.814C32.7764 13.8331 32.7362 13.8404 32.6968 13.8349H30.3556C30.3086 13.835 30.2622 13.8248 30.2197 13.8049C30.1772 13.7851 30.1395 13.7562 30.1094 13.7202L29.7133 13.2427C28.6391 13.9375 27.3459 14.2104 26.0826 14.0089C24.8193 13.8074 23.6751 13.1458 22.8703 12.1513C22.0656 11.1569 21.6571 9.8999 21.7235 8.62232C21.7898 7.34475 22.3264 6.13689 23.2299 5.23121C24.1335 4.32553 25.34 3.78604 26.6174 3.7166C27.8949 3.64715 29.1528 4.05264 30.1492 4.85503C31.1456 5.65742 31.8099 6.79999 32.0144 8.06283C32.2189 9.32568 31.9491 10.6195 31.2569 11.6954L32.8449 13.5129ZM28.2049 11.4215L27.1814 10.1814C27.157 10.1525 27.1414 10.1173 27.1364 10.0798C27.1315 10.0424 27.1373 10.0043 27.1532 9.97005C27.1692 9.93581 27.1946 9.90685 27.2265 9.88658C27.2584 9.8663 27.2954 9.85558 27.3332 9.85565H29.4783C29.5834 9.54437 29.6371 9.21807 29.6374 8.88952C29.6374 7.34408 28.4881 6.01334 26.9093 6.01334C25.3306 6.01334 24.1812 7.34593 24.1812 8.88952C24.1812 10.4331 25.3306 11.7472 26.9093 11.7472C27.3619 11.7512 27.808 11.639 28.2049 11.4215ZM15.8766 13.4574C15.9339 13.8479 15.8118 14.0126 15.6915 14.0126C15.5712 14.0126 15.3879 13.8553 15.1881 13.5425C14.9882 13.2297 14.9178 12.8818 15.0159 12.7041C15.052 12.6421 15.1107 12.5964 15.1798 12.5768C15.2488 12.5571 15.3227 12.5649 15.3861 12.5986C15.7137 12.7207 15.8432 13.226 15.8766 13.4574ZM14.0516 14.3069C14.4477 14.6419 14.568 15.0472 14.3589 15.3193C14.2953 15.398 14.2141 15.4606 14.1218 15.5021C14.0295 15.5436 13.9288 15.5628 13.8277 15.558C13.6066 15.5585 13.3923 15.4812 13.2225 15.3396C12.8634 15.025 12.7579 14.516 12.9911 14.2292C13.0434 14.1701 13.1083 14.1236 13.1811 14.0932C13.2538 14.0627 13.3325 14.0491 13.4113 14.0533C13.6478 14.0602 13.8745 14.15 14.0516 14.3069ZM13.3891 17.5366C15.0937 17.5366 16.9426 18.1214 18.9896 19.9426C19.1951 20.1277 19.4672 19.8982 19.2895 19.6724C17.2776 17.1257 15.4176 16.6426 13.5612 16.2336C11.2921 15.7339 10.1242 14.455 9.30984 13.0539C9.14882 12.7744 9.07478 12.8244 9.05998 13.1834C9.04354 13.7158 9.08075 14.2484 9.17103 14.7733C9.08034 14.7733 8.98594 14.7733 8.89525 14.7733C7.73221 14.7733 6.59528 14.4284 5.62827 13.7822C4.66126 13.136 3.9076 12.2176 3.4626 11.143C3.01761 10.0685 2.90127 8.88607 3.12831 7.7454C3.35534 6.60473 3.91555 5.557 4.73807 4.73473C5.5606 3.91246 6.6085 3.35259 7.74924 3.12591C8.88999 2.89924 10.0723 3.01595 11.1467 3.46128C12.2211 3.90661 13.1394 4.66056 13.7852 5.62778C14.4311 6.595 14.7757 7.73203 14.7753 8.89507C14.7761 9.12325 14.7637 9.35128 14.7383 9.57803C14.1188 9.50021 13.4928 9.48842 12.8708 9.54286C12.6487 9.56137 12.6857 9.66687 12.8486 9.69648C14.792 10.0481 16.1283 11.253 16.4318 13.437C16.4333 13.4478 16.438 13.458 16.4454 13.466C16.4528 13.4741 16.4625 13.4797 16.4731 13.4822C16.4838 13.4846 16.495 13.4837 16.5051 13.4796C16.5153 13.4755 16.5239 13.4684 16.5299 13.4592C17.5376 11.7735 17.9591 9.80177 17.7287 7.85143C17.4983 5.90109 16.6289 4.08184 15.2561 2.67741C13.8833 1.27298 12.0844 0.362348 10.1398 0.0875319C8.1952 -0.187284 6.21433 0.189172 4.50614 1.15819C2.79794 2.1272 1.45846 3.63429 0.696594 5.44439C-0.0652674 7.2545 -0.206669 9.26585 0.294444 11.1648C0.795556 13.0636 1.91101 14.7433 3.46682 15.9418C5.02264 17.1403 6.93135 17.7902 8.89525 17.7901C10.2001 17.7901 11.492 17.5366 13.3891 17.5366Z" fill="#FF8C00"/>
</svg>
