<svg width="62" height="20" viewBox="0 0 62 20" fill="none" xmlns="http://www.w3.org/2000/svg">
<path d="M26.6934 19.7116H21.7034L24.8245 0.351074H29.8143L26.6934 19.7116Z" fill="#00579F"/>
<path d="M44.7827 0.824255C43.7984 0.432522 42.2373 0 40.307 0C35.3792 0 31.9091 2.63619 31.8878 6.40515C31.8469 9.18588 34.3723 10.7304 36.2611 11.6575C38.1917 12.605 38.848 13.2234 38.848 14.0679C38.8283 15.3649 37.288 15.9628 35.8513 15.9628C33.859 15.9628 32.7916 15.6545 31.1693 14.9329L30.5122 14.6236L29.814 18.9696C30.9843 19.5045 33.1406 19.9792 35.3792 20C40.6151 20 44.0238 17.4046 44.0642 13.3882C44.0841 11.1842 42.7506 9.49549 39.8756 8.11552C38.1303 7.22968 37.0615 6.63236 37.0615 5.72598C37.0819 4.902 37.9655 4.05804 39.9357 4.05804C41.5579 4.0167 42.7498 4.40789 43.6527 4.79934L44.1041 5.00493L44.7827 0.824255Z" fill="#00579F"/>
<path d="M51.4147 12.8529C51.8257 11.7406 53.407 7.43594 53.407 7.43594C53.3862 7.47728 53.8171 6.30317 54.0635 5.58239L54.4122 7.25061C54.4122 7.25061 55.3572 11.8849 55.5624 12.8529C54.7825 12.8529 52.4004 12.8529 51.4147 12.8529ZM57.5743 0.351074H53.7145C52.5242 0.351074 51.6199 0.700924 51.1064 1.95743L43.6943 19.7113H48.9302C48.9302 19.7113 49.7922 17.3218 49.9775 16.8071C50.5519 16.8071 55.6454 16.8071 56.3843 16.8071C56.5276 17.4869 56.9797 19.7113 56.9797 19.7113H61.6L57.5743 0.351074Z" fill="#00579F"/>
<path d="M17.5353 0.351074L12.6484 13.5531L12.1144 10.8756C11.2109 7.78606 8.37739 4.42937 5.21533 2.76033L9.69154 19.6911H14.9684L22.8118 0.351074H17.5353Z" fill="#00579F"/>
<path d="M8.11061 0.351074H0.0821345L0 0.742259C6.26271 2.34888 10.4104 6.22159 12.1145 10.8764L10.3692 1.9785C10.0818 0.741986 9.19883 0.391863 8.11061 0.351074Z" fill="#FAA61A"/>
</svg>
