<svg width="20" height="20" viewBox="0 0 20 20" fill="none" xmlns="http://www.w3.org/2000/svg">
<path d="M9.66447 0C11.1797 0 12.6213 0.347141 13.9149 0.968115C14.1178 1.05964 14.322 1.16919 14.5242 1.27884L13.6372 2.06455L12.3074 0.69438L10.0161 2.70374L8.66677 1.26034L4.45336 5.0055L7.15092 7.94674L6.09782 8.85993L8.75924 11.8012L7.70605 12.714L11.513 16.8975L13.7662 14.8514L15.726 17.0442C15.3376 17.3365 14.9126 17.6294 14.4511 17.8847C13.0464 18.6701 11.42 19.126 9.68314 19.126C4.34208 19.126 6.12073e-05 14.8338 6.12073e-05 9.55477C-0.0188003 4.3114 4.32399 0 9.66447 0ZM7.89015 8.96976L10.2002 6.92361L12.2703 9.20707L9.95983 11.253L7.89015 8.96976ZM9.53529 12.9158L11.8265 10.8515L13.9149 13.1348L11.6048 15.1811L9.53529 12.9158ZM6.24645 5.07882L8.55579 3.03267L10.6255 5.31612L8.31536 7.36218L6.24645 5.07882ZM10.4774 3.98238L12.1961 2.44793L13.7488 4.14694L12.0301 5.69951L10.4774 3.98238ZM13.5454 11.0156L15.2635 9.48108L16.8161 11.1978L15.0972 12.7333L13.5454 11.0156ZM15.0604 14.4687L16.7793 12.9338L18.3306 14.6328L16.6125 16.1851L15.0604 14.4687ZM15.7628 6.57647L16.9084 5.55334L17.9429 6.68639L16.7975 7.70914L15.7628 6.57647ZM14.2844 3.19685L15.4301 2.15579L16.4653 3.30649L15.3188 4.32952L14.2844 3.19685ZM17.2225 9.95637L18.3681 8.93334L19.4214 10.066L18.2576 11.0888L17.2225 9.95637ZM12.0669 7.41701L13.7857 5.88247L15.3376 7.5811L13.6195 9.11593L12.0669 7.41701Z" fill="#036CB5"/>
</svg>
