<svg width="105" height="20" viewBox="0 0 105 20" fill="none" xmlns="http://www.w3.org/2000/svg">
<path d="M5.05466 10.5641L2.1338 17.1316H0L3.20944 10.1093C2.45737 9.72453 1.85396 9.16484 1.39047 8.42151C0.926978 7.67818 0.699606 6.6725 0.699606 5.38697C0.699606 4.49497 0.830783 3.70791 1.09313 3.0258C1.35549 2.34368 1.71404 1.784 2.16878 1.338C2.62352 0.891998 3.15697 0.55094 3.76038 0.332313C4.3638 0.104941 5.01093 0 5.67556 0H8.43026V17.1404H6.58505V10.5728H5.05466V10.5641ZM6.58505 1.53039H5.6056C5.2383 1.53039 4.87976 1.60035 4.52995 1.73153C4.18015 1.87145 3.86533 2.08133 3.59423 2.37866C3.32313 2.67599 3.1045 3.06952 2.93835 3.55925C2.77219 4.04897 2.68474 4.65238 2.68474 5.37822C2.68474 6.06909 2.76345 6.64626 2.91211 7.10975C3.06078 7.57324 3.27066 7.94928 3.53301 8.23787C3.79536 8.52645 4.11019 8.72759 4.46874 8.85002C4.82728 8.97245 5.20332 9.03367 5.6056 9.03367H6.58505V1.53039Z" fill="#EE2E24"/>
<path d="M17.324 5.05454V17.1315H15.4788V11.7183H12.6979V17.1315H10.8264V5.05454H12.6979V10.1879H15.4788V5.05454H17.324ZM26.9349 19.5014H25.2558V17.1315H20.0787V19.5014H18.3997V15.5924H19.143C19.4141 14.954 19.6327 14.2456 19.7901 13.4673C19.9475 12.689 20.07 11.8932 20.1574 11.0712C20.2449 10.2491 20.2973 9.40959 20.3236 8.55257C20.3498 7.69555 20.3586 6.87352 20.3586 6.06897V5.05454H25.9642V15.6011H26.9261V19.5014H26.9349ZM24.1277 6.58493H22.0464V6.80356C22.0464 7.44195 22.0376 8.14155 22.0114 8.89363C21.9851 9.65445 21.9327 10.424 21.854 11.2023C21.7753 11.9806 21.6616 12.7502 21.5217 13.511C21.3817 14.2719 21.1806 14.9627 20.9182 15.6011H24.1277V6.58493ZM35.059 16.3182C34.6742 16.6243 34.237 16.8604 33.7385 17.0353C33.2401 17.2102 32.6891 17.2977 32.0857 17.2977C30.8352 17.2977 29.8557 16.8167 29.1386 15.846C28.4215 14.8753 28.063 13.4586 28.063 11.5959C28.063 10.6252 28.1329 9.72441 28.2641 8.91112C28.404 8.09783 28.6139 7.38948 28.9112 6.78607C29.2086 6.18266 29.5846 5.71917 30.0481 5.38685C30.5116 5.05454 31.0625 4.87964 31.7009 4.87964C32.1994 4.87964 32.6541 4.97583 33.0652 5.17697C33.4762 5.37811 33.8347 5.70168 34.1233 6.14768C34.4119 6.59367 34.6305 7.17085 34.7967 7.88795C34.9541 8.5963 35.0328 9.46206 35.0328 10.4852V11.5172H29.9956C29.9956 12.8901 30.1793 13.9308 30.5553 14.6304C30.9314 15.33 31.491 15.6886 32.2431 15.6886C32.7678 15.6886 33.2401 15.6011 33.6423 15.4087C34.0533 15.2251 34.3769 15.0414 34.613 14.8665L35.059 16.3182ZM31.7009 6.41877C31.1237 6.41877 30.7215 6.74234 30.4766 7.38948C30.2318 8.03661 30.0831 8.90238 30.0219 9.98677H33.1176C33.1176 9.47955 33.0914 8.99857 33.0477 8.56132C33.0039 8.12406 32.9252 7.73928 32.8203 7.42446C32.7154 7.10089 32.5754 6.85603 32.3918 6.68113C32.2081 6.50622 31.972 6.41877 31.7009 6.41877ZM38.8194 11.1149V17.1315H36.948V5.05454H38.8194V10.6426L41.7228 5.05454H43.6205L40.6209 10.7388L44.049 17.1402H42.0114L38.8194 11.1149ZM48.4303 17.2977C47.136 17.2977 46.1216 16.7817 45.387 15.7498C44.6524 14.7179 44.2851 13.1612 44.2851 11.0886C44.2851 10.1442 44.3725 9.28716 44.5649 8.52634C44.7486 7.75677 45.0197 7.10963 45.3782 6.57618C45.7368 6.04273 46.1828 5.62297 46.7162 5.32564C47.2497 5.0283 47.8706 4.87964 48.5702 4.87964C49.1124 4.87964 49.5496 4.94085 49.8907 5.06329C50.223 5.18572 50.5291 5.33438 50.8002 5.50928L50.5378 7.28454C50.2842 7.05716 49.9781 6.85603 49.6371 6.68113C49.296 6.50622 48.9287 6.41877 48.5439 6.41877C47.8706 6.41877 47.3196 6.79481 46.8911 7.55563C46.4626 8.30771 46.244 9.46206 46.244 11.0012C46.244 12.5228 46.4276 13.7034 46.7862 14.5342C47.1447 15.365 47.7132 15.776 48.474 15.776C48.9375 15.776 49.3397 15.6973 49.6721 15.5399C50.0044 15.3825 50.2842 15.2076 50.5116 15.0064L50.9401 16.3969C50.6165 16.668 50.258 16.8866 49.8645 17.0528C49.4709 17.2189 48.9899 17.2977 48.4303 17.2977Z" fill="black"/>
<path d="M63.6556 17.1317H56.3184L56.1523 19.9826H55.2166V16.1784H55.7238C56.1348 15.8286 56.4584 15.199 56.6857 14.307C56.9131 13.415 57.088 12.3481 57.2104 11.115C57.3416 9.83826 57.4291 8.26414 57.4728 6.40144C57.5165 4.53874 57.5602 2.40494 57.5952 0.00878906H63.5856V16.1872H64.7574V20H63.8217L63.6556 17.1317ZM62.3788 0.953258H58.6621C58.6271 3.14827 58.5834 5.08094 58.5222 6.73376C58.461 8.39532 58.3823 9.847 58.2861 11.0976C58.1724 12.4006 58.015 13.4675 57.8226 14.307C57.6214 15.1465 57.3591 15.7674 57.0443 16.1697H62.3875V0.953258H62.3788Z" fill="black"/>
<path d="M67.0572 11.2811C67.0922 12.9514 67.3196 14.2195 67.7481 15.094C68.1766 15.9685 68.8325 16.4057 69.7157 16.4057C70.118 16.4057 70.4678 16.3445 70.7739 16.2134C71.08 16.0822 71.3336 15.9248 71.5435 15.7499C71.7796 15.575 71.9895 15.3476 72.1644 15.094L72.5229 16.0035C72.3305 16.2746 72.1032 16.5107 71.8321 16.6943C71.5959 16.8692 71.2986 17.0266 70.9488 17.1578C70.599 17.289 70.1792 17.359 69.6983 17.359C68.4215 17.359 67.477 16.808 66.8736 15.7061C66.2702 14.6043 65.9641 13.0651 65.9641 11.08C65.9641 10.0918 66.0516 9.20855 66.2265 8.43023C66.4014 7.65192 66.6462 6.99604 66.961 6.45385C67.2759 5.91165 67.6432 5.50063 68.0717 5.22079C68.5002 4.94095 68.9724 4.80103 69.4884 4.80103C70.0131 4.80103 70.4853 4.94095 70.9051 5.21204C71.3161 5.48314 71.6659 5.89416 71.937 6.43636C72.2081 6.97855 72.4005 7.65192 72.5142 8.46521C72.6279 9.26976 72.6366 10.2142 72.5404 11.2811H67.0572ZM69.4796 5.77173C68.8412 5.77173 68.2903 6.16526 67.8356 6.95232C67.3808 7.73937 67.1272 8.88498 67.0835 10.3979H71.4735C71.5697 8.78878 71.4123 7.61694 71.01 6.88235C70.6077 6.14777 70.083 5.77173 69.4796 5.77173Z" fill="black"/>
<path d="M79.9038 11.3599H75.7849V17.1404H74.6567V5.05469H75.7849V10.3979H79.9038V5.05469H81.0319V17.1316H79.9038V11.3599Z" fill="black"/>
<path d="M83.6904 5.05469H84.8185V9.53217H85.7018C86.8561 9.53217 87.7744 9.84699 88.4565 10.4679C89.1474 11.0888 89.4884 12.0333 89.4884 13.2926C89.4884 14.5693 89.1299 15.5313 88.4128 16.1697C87.6957 16.8081 86.7687 17.1316 85.6318 17.1316H83.6904V5.05469ZM84.8185 10.4242V16.2484H85.5356C86.3839 16.2484 87.066 16.021 87.5995 15.5663C88.1329 15.1115 88.3865 14.3682 88.3865 13.3275C88.3865 12.3044 88.1504 11.5698 87.6694 11.1063C87.1885 10.6515 86.5151 10.4242 85.6581 10.4242H84.8185Z" fill="black"/>
<path d="M92.5318 6.0079V17.1316H91.4299V5.05469H96.5371V6.01665H92.5318V6.0079Z" fill="black"/>
<path d="M103.891 8.71883C103.891 8.39526 103.9 8.10668 103.918 7.84432C103.935 7.58197 103.961 7.31962 103.988 7.06601H103.918C103.839 7.33711 103.743 7.59946 103.629 7.84432C103.515 8.08919 103.393 8.35154 103.271 8.62264L99.344 17.1316H98.3821V5.05464H99.4402V13.4412C99.4402 13.7647 99.4315 14.0533 99.414 14.3244C99.3965 14.5955 99.3703 14.8666 99.344 15.1377H99.414C99.4927 14.8666 99.5889 14.5955 99.7026 14.3332C99.8163 14.0708 99.93 13.7997 100.061 13.5286L103.988 5.0459H104.967V17.1229H103.891V8.71883Z" fill="black"/>
</svg>
