<svg width="33" height="20" viewBox="0 0 33 20" fill="none" xmlns="http://www.w3.org/2000/svg">
<path d="M20.5517 2.13843H11.8027V17.8616H20.5517V2.13843Z" fill="#FF5F00"/>
<path d="M12.3582 10.001C12.3566 8.48649 12.6996 6.99151 13.3612 5.62922C14.0229 4.26693 14.9859 3.07305 16.1772 2.13799C14.7021 0.97874 12.9307 0.257872 11.0653 0.0577731C9.1999 -0.142326 7.31585 0.186418 5.62847 1.00643C3.94108 1.82645 2.51843 3.10465 1.52313 4.69495C0.527817 6.28525 0 8.12349 0 9.99958C0 11.8757 0.527817 13.7139 1.52313 15.3042C2.51843 16.8945 3.94108 18.1727 5.62847 18.9927C7.31585 19.8127 9.1999 20.1415 11.0653 19.9414C12.9307 19.7413 14.7021 19.0204 16.1772 17.8612C14.9862 16.9264 14.0235 15.733 13.3619 14.3712C12.7002 13.0094 12.357 11.515 12.3582 10.001Z" fill="#EB001B"/>
<path d="M32.3559 10.0014C32.3559 11.8776 31.8279 13.716 30.8324 15.3063C29.837 16.8967 28.4141 18.1749 26.7265 18.9948C25.0389 19.8147 23.1547 20.1432 21.2892 19.9428C19.4237 19.7424 17.6522 19.0212 16.1772 17.8616C17.3677 16.926 18.3302 15.7322 18.992 14.3704C19.6538 13.0085 19.9977 11.5141 19.9977 10C19.9977 8.48585 19.6538 6.99148 18.992 5.62963C18.3302 4.26778 17.3677 3.07402 16.1772 2.13841C17.6522 0.978802 19.4237 0.257583 21.2892 0.0571966C23.1547 -0.143189 25.0389 0.185343 26.7265 1.00524C28.4141 1.82514 29.837 3.10332 30.8324 4.69367C31.8279 6.28403 32.3559 8.12239 32.3559 9.99861V10.0014Z" fill="#F79E1B"/>
<path d="M31.4004 16.1952V15.8731H31.5309V15.8064H31.2004V15.8731H31.3421V16.1952H31.4004ZM32.042 16.1952V15.8064H31.942L31.8254 16.0841L31.7087 15.8064H31.6198V16.1952H31.692V15.9036L31.8004 16.1564H31.8753L31.9837 15.9036V16.198L32.042 16.1952Z" fill="#F79E1B"/>
</svg>
